# xmcd
#
# Track frame offsets: 
#        150
#        17123
#        32539
#        47564
#        62476
#        75923
#        91447
#        108330
#        125849
#        141372
#        155347
#
# Disc length: 2238 seconds
#
# Revision: 0
# Processed by: cddbd v1.5.2PL0 Copyright (c) Steve Scherf et al.
# Submitted via: ExactAudioCopy v1.0b4
#
DISCID=8508bc0b
DTITLE=Melanie Peterson - Anywhere From Here
DYEAR=2016
DGENRE=Folk-Country
TTITLE0=Truth Talking
TTITLE1=Where There's Smoke (Lust Ain't Love)
TTITLE2=Fallback Plan
TTITLE3=Just the Right Amount of Wrong
TTITLE4=Good on Paper
TTITLE5=Who Says
TTITLE6=Easy to Love
TTITLE7=Miss You Already
TTITLE8=A Path Laid Out Like Gold
TTITLE9=Holding Pattern
TTITLE10=A Gift
EXTD=
EXTT0=
EXTT1=
EXTT2=
EXTT3=
EXTT4=
EXTT5=
EXTT6=
EXTT7=
EXTT8=
EXTT9=
EXTT10=
PLAYORDER=
